# xmcd
#
# Track frame offsets:
#	150
#	20837
#	61105
#	81722
#
# Disc length: 1326 seconds
#
# Revision: 0
# Processed by: cddbd v1.4PL0 Copyright (c) Steve Scherf et al.
# Submitted via: EasyCDDAExtractor 5.0.5.1
#
DISCID=31052c04
DTITLE=Seal - Maxi
DYEAR=2003
DGENRE=ballad
TTITLE0=Love's Divine (Album Version)
TTITLE1=Love's Divine (Passengerz Sanctuary Club Mix)
TTITLE2=Love's Divine (Deepsky Edit)
TTITLE3=Love's Divine (Passengers Divine Radio Mix)
EXTD=
EXTT0=
EXTT1=
EXTT2=
EXTT3=
PLAYORDER=
